<svg xmlns="http://www.w3.org/2000/svg" xmlns:xlink="http://www.w3.org/1999/xlink" width="500" zoomAndPan="magnify" viewBox="0 0 375 374.999991" height="500" preserveAspectRatio="xMidYMid meet" version="1.0"><defs><g/><clipPath id="ca7b1da9f4"><path d="M 25.667969 211.625 L 360.351562 211.625 L 360.351562 251.835938 L 25.667969 251.835938 Z M 25.667969 211.625 " clip-rule="nonzero"/></clipPath></defs><rect x="-37.5" width="450" fill="#ffffff" y="-37.499999" height="449.999989" fill-opacity="1"/><rect x="-37.5" width="450" fill="#ffffff" y="-37.499999" height="449.999989" fill-opacity="1"/><rect x="-37.5" width="450" fill="#fbfaf9" y="-37.499999" height="449.999989" fill-opacity="1"/><g fill="#231f20" fill-opacity="1"><g transform="translate(61.516962, 299.036021)"><g><path d="M 125.394531 -23.027344 L 89.015625 -154.808594 L 50.121094 -154.808594 C 51.859375 -149.195312 51.472656 -146.488281 50.121094 -141.070312 L 17.222656 -20.898438 C 15.289062 -13.738281 14.320312 -9.480469 9.675781 0 L 17.222656 0 C 17.804688 -9.09375 19.542969 -13.738281 21.480469 -21.09375 L 30.769531 -55.34375 L 81.855469 -55.34375 L 90.757812 -23.027344 C 93.273438 -13.738281 94.628906 -9.675781 95.015625 0 L 134.492188 0 C 130.234375 -7.742188 128.105469 -12.773438 125.394531 -23.027344 Z M 31.929688 -59.40625 L 56.117188 -148.035156 L 80.695312 -59.40625 Z M 31.929688 -59.40625 "/></g></g></g><g fill="#231f20" fill-opacity="1"><g transform="translate(196.00213, 299.036021)"><g><path d="M 13.546875 -154.808594 C 15.289062 -140.101562 15.867188 -131.394531 15.867188 -113.398438 L 15.867188 -41.410156 C 15.867188 -23.414062 15.289062 -14.707031 13.546875 0 L 50.507812 0 C 48.957031 -14.707031 48.378906 -23.414062 48.378906 -41.410156 L 48.378906 -73.148438 L 59.214844 -73.148438 C 69.46875 -73.148438 79.921875 -73.148438 97.917969 -71.210938 L 97.917969 -79.144531 C 79.921875 -77.210938 69.46875 -77.210938 59.214844 -77.210938 L 48.378906 -77.210938 L 48.378906 -150.746094 L 68.890625 -150.746094 C 79.726562 -150.746094 95.402344 -149.003906 111.460938 -139.132812 L 122.6875 -154.808594 Z M 13.546875 -154.808594 "/></g></g></g><g clip-path="url(#ca7b1da9f4)"><path fill="#fbfaf9" d="M 25.667969 211.625 L 360.289062 211.625 L 360.289062 251.832031 L 25.667969 251.832031 Z M 25.667969 211.625 " fill-opacity="1" fill-rule="nonzero"/></g><g fill="#000000" fill-opacity="1"><g transform="translate(59.607755, 236.149319)"><g><path d="M 7.21875 -2.09375 L 2.53125 -2.09375 L 1.640625 0 L 0.015625 0 L 4.125 -9.296875 L 5.71875 -9.296875 L 9.78125 0 L 8.109375 0 Z M 6.625 -3.5 L 4.875 -7.625 L 3.125 -3.5 Z M 6.625 -3.5 "/></g></g></g><g fill="#000000" fill-opacity="1"><g transform="translate(80.02495, 236.149319)"><g><path d="M 4.28125 -9.359375 C 5.476562 -9.359375 6.5625 -9.039062 7.53125 -8.40625 L 6.875 -7.03125 C 5.925781 -7.601562 5.019531 -7.890625 4.15625 -7.890625 C 3.6875 -7.890625 3.316406 -7.804688 3.046875 -7.640625 C 2.773438 -7.472656 2.640625 -7.234375 2.640625 -6.921875 C 2.640625 -6.609375 2.765625 -6.34375 3.015625 -6.125 C 3.265625 -5.90625 3.570312 -5.742188 3.9375 -5.640625 C 4.3125 -5.546875 4.710938 -5.421875 5.140625 -5.265625 C 5.578125 -5.109375 5.984375 -4.941406 6.359375 -4.765625 C 6.734375 -4.597656 7.039062 -4.328125 7.28125 -3.953125 C 7.53125 -3.585938 7.65625 -3.144531 7.65625 -2.625 C 7.65625 -1.8125 7.328125 -1.160156 6.671875 -0.671875 C 6.023438 -0.191406 5.179688 0.046875 4.140625 0.046875 C 3.429688 0.046875 2.742188 -0.0820312 2.078125 -0.34375 C 1.421875 -0.613281 0.84375 -0.972656 0.34375 -1.421875 L 1.015625 -2.78125 C 1.492188 -2.34375 2.007812 -2.003906 2.5625 -1.765625 C 3.125 -1.535156 3.660156 -1.421875 4.171875 -1.421875 C 4.722656 -1.421875 5.148438 -1.519531 5.453125 -1.71875 C 5.753906 -1.914062 5.90625 -2.191406 5.90625 -2.546875 C 5.90625 -2.867188 5.78125 -3.132812 5.53125 -3.34375 C 5.289062 -3.5625 4.984375 -3.722656 4.609375 -3.828125 C 4.234375 -3.929688 3.828125 -4.054688 3.390625 -4.203125 C 2.960938 -4.347656 2.5625 -4.503906 2.1875 -4.671875 C 1.820312 -4.835938 1.515625 -5.097656 1.265625 -5.453125 C 1.015625 -5.816406 0.890625 -6.257812 0.890625 -6.78125 C 0.890625 -7.5625 1.195312 -8.1875 1.8125 -8.65625 C 2.4375 -9.125 3.257812 -9.359375 4.28125 -9.359375 Z M 4.28125 -9.359375 "/></g></g></g><g fill="#000000" fill-opacity="1"><g transform="translate(98.903315, 236.149319)"><g><path d="M 9.28125 0 L 7.71875 0 L 7.71875 -3.859375 L 2.796875 -3.859375 L 2.796875 0 L 1.21875 0 L 1.21875 -9.296875 L 2.796875 -9.296875 L 2.796875 -5.265625 L 7.71875 -5.265625 L 7.71875 -9.296875 L 9.28125 -9.296875 Z M 9.28125 0 "/></g></g></g><g fill="#000000" fill-opacity="1"><g transform="translate(120.023599, 236.149319)"><g><path d="M 2.796875 -1.421875 L 6.8125 -1.421875 L 6.8125 0 L 1.21875 0 L 1.21875 -9.296875 L 2.796875 -9.296875 Z M 2.796875 -1.421875 "/></g></g></g><g fill="#000000" fill-opacity="1"><g transform="translate(137.734577, 236.149319)"><g><path d="M 7.21875 -2.09375 L 2.53125 -2.09375 L 1.640625 0 L 0.015625 0 L 4.125 -9.296875 L 5.71875 -9.296875 L 9.78125 0 L 8.109375 0 Z M 6.625 -3.5 L 4.875 -7.625 L 3.125 -3.5 Z M 6.625 -3.5 "/></g></g></g><g fill="#000000" fill-opacity="1"><g transform="translate(158.151768, 236.149319)"><g><path d="M 9.28125 0 L 7.75 0 L 2.796875 -6.671875 L 2.796875 0 L 1.21875 0 L 1.21875 -9.296875 L 2.765625 -9.296875 L 7.75 -2.609375 L 7.75 -9.296875 L 9.28125 -9.296875 Z M 9.28125 0 "/></g></g></g><g fill="#dec2ba" fill-opacity="1"><g transform="translate(179.274648, 236.149319)"><g/></g></g><g fill="#000000" fill-opacity="1"><g transform="translate(193.318404, 236.149319)"><g><path d="M 7.453125 -7.890625 L 2.796875 -7.890625 L 2.796875 -5.203125 L 7.015625 -5.203125 L 7.015625 -3.8125 L 2.796875 -3.8125 L 2.796875 0 L 1.21875 0 L 1.21875 -9.296875 L 7.46875 -9.296875 Z M 7.453125 -7.890625 "/></g></g></g><g fill="#000000" fill-opacity="1"><g transform="translate(211.573287, 236.149319)"><g><path d="M 2.796875 0 L 1.21875 0 L 1.21875 -9.296875 L 2.796875 -9.296875 Z M 2.796875 0 "/></g></g></g><g fill="#000000" fill-opacity="1"><g transform="translate(226.206619, 236.149319)"><g><path d="M 2.796875 -1.421875 L 6.8125 -1.421875 L 6.8125 0 L 1.21875 0 L 1.21875 -9.296875 L 2.796875 -9.296875 Z M 2.796875 -1.421875 "/></g></g></g><g fill="#000000" fill-opacity="1"><g transform="translate(243.917599, 236.149319)"><g><path d="M 1.21875 -9.296875 L 5.265625 -9.296875 C 6.222656 -9.296875 6.976562 -9.085938 7.53125 -8.671875 C 8.09375 -8.265625 8.375 -7.695312 8.375 -6.96875 C 8.375 -6.445312 8.226562 -6.003906 7.9375 -5.640625 C 7.644531 -5.273438 7.25 -5.03125 6.75 -4.90625 C 7.363281 -4.789062 7.847656 -4.523438 8.203125 -4.109375 C 8.554688 -3.703125 8.734375 -3.179688 8.734375 -2.546875 C 8.734375 -1.753906 8.429688 -1.128906 7.828125 -0.671875 C 7.234375 -0.222656 6.410156 0 5.359375 0 L 1.21875 0 Z M 2.796875 -7.90625 L 2.796875 -5.453125 L 5.1875 -5.453125 C 5.675781 -5.453125 6.0625 -5.5625 6.34375 -5.78125 C 6.632812 -6 6.78125 -6.300781 6.78125 -6.6875 C 6.78125 -7.082031 6.640625 -7.382812 6.359375 -7.59375 C 6.078125 -7.800781 5.6875 -7.90625 5.1875 -7.90625 Z M 2.796875 -4.0625 L 2.796875 -1.390625 L 5.1875 -1.390625 C 5.800781 -1.390625 6.273438 -1.503906 6.609375 -1.734375 C 6.953125 -1.972656 7.125 -2.3125 7.125 -2.75 C 7.125 -3.15625 6.953125 -3.472656 6.609375 -3.703125 C 6.265625 -3.941406 5.789062 -4.0625 5.1875 -4.0625 Z M 2.796875 -4.0625 "/></g></g></g><g fill="#000000" fill-opacity="1"><g transform="translate(263.910292, 236.149319)"><g><path d="M 7.125 0 L 5.421875 -2.8125 C 5.328125 -2.800781 5.1875 -2.796875 5 -2.796875 L 2.796875 -2.796875 L 2.796875 0 L 1.21875 0 L 1.21875 -9.296875 L 5 -9.296875 C 6.1875 -9.296875 7.101562 -9.019531 7.75 -8.46875 C 8.40625 -7.914062 8.734375 -7.132812 8.734375 -6.125 C 8.734375 -5.375 8.566406 -4.742188 8.234375 -4.234375 C 7.910156 -3.722656 7.4375 -3.347656 6.8125 -3.109375 L 8.90625 0 Z M 2.796875 -4.203125 L 5 -4.203125 C 6.5 -4.203125 7.25 -4.828125 7.25 -6.078125 C 7.25 -7.285156 6.5 -7.890625 5 -7.890625 L 2.796875 -7.890625 Z M 2.796875 -4.203125 "/></g></g></g><g fill="#000000" fill-opacity="1"><g transform="translate(284.128494, 236.149319)"><g><path d="M 9.125 -9.296875 L 9.125 -3.859375 C 9.125 -2.640625 8.765625 -1.679688 8.046875 -0.984375 C 7.328125 -0.285156 6.335938 0.0625 5.078125 0.0625 C 3.828125 0.0625 2.835938 -0.285156 2.109375 -0.984375 C 1.390625 -1.679688 1.03125 -2.640625 1.03125 -3.859375 L 1.03125 -9.296875 L 2.609375 -9.296875 L 2.609375 -3.859375 C 2.609375 -3.078125 2.828125 -2.460938 3.265625 -2.015625 C 3.710938 -1.566406 4.320312 -1.34375 5.09375 -1.34375 C 5.863281 -1.34375 6.46875 -1.5625 6.90625 -2 C 7.34375 -2.445312 7.5625 -3.066406 7.5625 -3.859375 L 7.5625 -9.296875 Z M 9.125 -9.296875 "/></g></g></g><g fill="#000000" fill-opacity="1"><g transform="translate(304.890598, 236.149319)"><g><path d="M 9.28125 0 L 7.75 0 L 2.796875 -6.671875 L 2.796875 0 L 1.21875 0 L 1.21875 -9.296875 L 2.765625 -9.296875 L 7.75 -2.609375 L 7.75 -9.296875 L 9.28125 -9.296875 Z M 9.28125 0 "/></g></g></g></svg>