<svg xmlns="http://www.w3.org/2000/svg" xmlns:xlink="http://www.w3.org/1999/xlink" width="500" zoomAndPan="magnify" viewBox="0 0 375 374.999991" height="500" preserveAspectRatio="xMidYMid meet" version="1.0"><defs><g/><clipPath id="d577f6d583"><path d="M 25.667969 174.777344 L 360.351562 174.777344 L 360.351562 214.992188 L 25.667969 214.992188 Z M 25.667969 174.777344 " clip-rule="nonzero"/></clipPath></defs><rect x="-37.5" width="450" fill="#ffffff" y="-37.499999" height="449.999989" fill-opacity="1"/><rect x="-37.5" width="450" fill="#ffffff" y="-37.499999" height="449.999989" fill-opacity="1"/><rect x="-37.5" width="450" fill="#fbfaf9" y="-37.499999" height="449.999989" fill-opacity="1"/><g fill="#231f20" fill-opacity="1"><g transform="translate(57.400925, 260.789751)"><g><path d="M 125.394531 -23.027344 L 89.015625 -154.808594 L 50.121094 -154.808594 C 51.859375 -149.195312 51.472656 -146.488281 50.121094 -141.070312 L 17.222656 -20.898438 C 15.289062 -13.738281 14.320312 -9.480469 9.675781 0 L 17.222656 0 C 17.804688 -9.09375 19.542969 -13.738281 21.480469 -21.09375 L 30.769531 -55.34375 L 81.855469 -55.34375 L 90.757812 -23.027344 C 93.273438 -13.738281 94.628906 -9.675781 95.015625 0 L 134.492188 0 C 130.234375 -7.742188 128.105469 -12.773438 125.394531 -23.027344 Z M 31.929688 -59.40625 L 56.117188 -148.035156 L 80.695312 -59.40625 Z M 31.929688 -59.40625 "/></g></g></g><g fill="#231f20" fill-opacity="1"><g transform="translate(191.886093, 260.789751)"><g><path d="M 13.546875 -154.808594 C 15.289062 -140.101562 15.867188 -131.394531 15.867188 -113.398438 L 15.867188 -41.410156 C 15.867188 -23.414062 15.289062 -14.707031 13.546875 0 L 50.507812 0 C 48.957031 -14.707031 48.378906 -23.414062 48.378906 -41.410156 L 48.378906 -73.148438 L 59.214844 -73.148438 C 69.46875 -73.148438 79.921875 -73.148438 97.917969 -71.210938 L 97.917969 -79.144531 C 79.921875 -77.210938 69.46875 -77.210938 59.214844 -77.210938 L 48.378906 -77.210938 L 48.378906 -150.746094 L 68.890625 -150.746094 C 79.726562 -150.746094 95.402344 -149.003906 111.460938 -139.132812 L 122.6875 -154.808594 Z M 13.546875 -154.808594 "/></g></g></g><g clip-path="url(#d577f6d583)"><path fill="#fbfaf9" d="M 25.667969 174.777344 L 360.289062 174.777344 L 360.289062 214.984375 L 25.667969 214.984375 Z M 25.667969 174.777344 " fill-opacity="1" fill-rule="nonzero"/></g><g fill="#000000" fill-opacity="1"><g transform="translate(62.484331, 199.009617)"><g><path d="M 6.734375 -1.953125 L 2.359375 -1.953125 L 1.53125 0 L 0.015625 0 L 3.84375 -8.671875 L 5.34375 -8.671875 L 9.125 0 L 7.578125 0 Z M 6.1875 -3.265625 L 4.546875 -7.109375 L 2.90625 -3.265625 Z M 6.1875 -3.265625 "/></g></g></g><g fill="#000000" fill-opacity="1"><g transform="translate(81.548771, 199.009617)"><g><path d="M 3.984375 -8.734375 C 5.109375 -8.734375 6.125 -8.4375 7.03125 -7.84375 L 6.421875 -6.546875 C 5.535156 -7.085938 4.6875 -7.359375 3.875 -7.359375 C 3.4375 -7.359375 3.09375 -7.28125 2.84375 -7.125 C 2.59375 -6.96875 2.46875 -6.742188 2.46875 -6.453125 C 2.46875 -6.160156 2.582031 -5.914062 2.8125 -5.71875 C 3.039062 -5.519531 3.328125 -5.367188 3.671875 -5.265625 C 4.023438 -5.171875 4.40625 -5.050781 4.8125 -4.90625 C 5.21875 -4.769531 5.59375 -4.617188 5.9375 -4.453125 C 6.28125 -4.296875 6.566406 -4.046875 6.796875 -3.703125 C 7.023438 -3.359375 7.140625 -2.941406 7.140625 -2.453125 C 7.140625 -1.691406 6.832031 -1.082031 6.21875 -0.625 C 5.613281 -0.175781 4.828125 0.046875 3.859375 0.046875 C 3.203125 0.046875 2.5625 -0.0703125 1.9375 -0.3125 C 1.320312 -0.5625 0.785156 -0.898438 0.328125 -1.328125 L 0.953125 -2.59375 C 1.390625 -2.1875 1.867188 -1.875 2.390625 -1.65625 C 2.921875 -1.4375 3.421875 -1.328125 3.890625 -1.328125 C 4.398438 -1.328125 4.796875 -1.421875 5.078125 -1.609375 C 5.367188 -1.796875 5.515625 -2.050781 5.515625 -2.375 C 5.515625 -2.675781 5.394531 -2.925781 5.15625 -3.125 C 4.925781 -3.332031 4.640625 -3.484375 4.296875 -3.578125 C 3.953125 -3.671875 3.578125 -3.785156 3.171875 -3.921875 C 2.765625 -4.054688 2.390625 -4.195312 2.046875 -4.34375 C 1.703125 -4.5 1.410156 -4.742188 1.171875 -5.078125 C 0.941406 -5.421875 0.828125 -5.832031 0.828125 -6.3125 C 0.828125 -7.050781 1.113281 -7.640625 1.6875 -8.078125 C 2.269531 -8.515625 3.035156 -8.734375 3.984375 -8.734375 Z M 3.984375 -8.734375 "/></g></g></g><g fill="#000000" fill-opacity="1"><g transform="translate(99.176336, 199.009617)"><g><path d="M 8.65625 0 L 7.203125 0 L 7.203125 -3.59375 L 2.609375 -3.59375 L 2.609375 0 L 1.140625 0 L 1.140625 -8.671875 L 2.609375 -8.671875 L 2.609375 -4.90625 L 7.203125 -4.90625 L 7.203125 -8.671875 L 8.65625 -8.671875 Z M 8.65625 0 "/></g></g></g><g fill="#000000" fill-opacity="1"><g transform="translate(118.89728, 199.009617)"><g><path d="M 2.609375 -1.328125 L 6.359375 -1.328125 L 6.359375 0 L 1.140625 0 L 1.140625 -8.671875 L 2.609375 -8.671875 Z M 2.609375 -1.328125 "/></g></g></g><g fill="#000000" fill-opacity="1"><g transform="translate(135.434805, 199.009617)"><g><path d="M 6.734375 -1.953125 L 2.359375 -1.953125 L 1.53125 0 L 0.015625 0 L 3.84375 -8.671875 L 5.34375 -8.671875 L 9.125 0 L 7.578125 0 Z M 6.1875 -3.265625 L 4.546875 -7.109375 L 2.90625 -3.265625 Z M 6.1875 -3.265625 "/></g></g></g><g fill="#000000" fill-opacity="1"><g transform="translate(154.499241, 199.009617)"><g><path d="M 8.65625 0 L 7.21875 0 L 2.609375 -6.21875 L 2.609375 0 L 1.140625 0 L 1.140625 -8.671875 L 2.578125 -8.671875 L 7.21875 -2.4375 L 7.21875 -8.671875 L 8.65625 -8.671875 Z M 8.65625 0 "/></g></g></g><g fill="#dec2ba" fill-opacity="1"><g transform="translate(174.222609, 199.009617)"><g/></g></g><g fill="#000000" fill-opacity="1"><g transform="translate(187.335886, 199.009617)"><g><path d="M 6.953125 -7.359375 L 2.609375 -7.359375 L 2.609375 -4.859375 L 6.546875 -4.859375 L 6.546875 -3.5625 L 2.609375 -3.5625 L 2.609375 0 L 1.140625 0 L 1.140625 -8.671875 L 6.96875 -8.671875 Z M 6.953125 -7.359375 "/></g></g></g><g fill="#000000" fill-opacity="1"><g transform="translate(204.381279, 199.009617)"><g><path d="M 2.609375 0 L 1.140625 0 L 1.140625 -8.671875 L 2.609375 -8.671875 Z M 2.609375 0 "/></g></g></g><g fill="#000000" fill-opacity="1"><g transform="translate(218.045069, 199.009617)"><g><path d="M 2.609375 -1.328125 L 6.359375 -1.328125 L 6.359375 0 L 1.140625 0 L 1.140625 -8.671875 L 2.609375 -8.671875 Z M 2.609375 -1.328125 "/></g></g></g><g fill="#000000" fill-opacity="1"><g transform="translate(234.582595, 199.009617)"><g><path d="M 1.140625 -8.671875 L 4.90625 -8.671875 C 5.800781 -8.671875 6.507812 -8.476562 7.03125 -8.09375 C 7.550781 -7.707031 7.8125 -7.175781 7.8125 -6.5 C 7.8125 -6.019531 7.675781 -5.609375 7.40625 -5.265625 C 7.132812 -4.921875 6.765625 -4.691406 6.296875 -4.578125 C 6.867188 -4.472656 7.320312 -4.226562 7.65625 -3.84375 C 7.988281 -3.457031 8.15625 -2.96875 8.15625 -2.375 C 8.15625 -1.632812 7.875 -1.050781 7.3125 -0.625 C 6.75 -0.207031 5.976562 0 5 0 L 1.140625 0 Z M 2.609375 -7.375 L 2.609375 -5.078125 L 4.828125 -5.078125 C 5.296875 -5.078125 5.660156 -5.179688 5.921875 -5.390625 C 6.179688 -5.597656 6.3125 -5.882812 6.3125 -6.25 C 6.3125 -6.613281 6.179688 -6.890625 5.921875 -7.078125 C 5.660156 -7.273438 5.296875 -7.375 4.828125 -7.375 Z M 2.609375 -3.796875 L 2.609375 -1.296875 L 4.828125 -1.296875 C 5.410156 -1.296875 5.859375 -1.40625 6.171875 -1.625 C 6.492188 -1.84375 6.65625 -2.15625 6.65625 -2.5625 C 6.65625 -2.945312 6.492188 -3.25 6.171875 -3.46875 C 5.847656 -3.6875 5.398438 -3.796875 4.828125 -3.796875 Z M 2.609375 -3.796875 "/></g></g></g><g fill="#000000" fill-opacity="1"><g transform="translate(253.250657, 199.009617)"><g><path d="M 6.640625 0 L 5.0625 -2.625 C 4.976562 -2.613281 4.84375 -2.609375 4.65625 -2.609375 L 2.609375 -2.609375 L 2.609375 0 L 1.140625 0 L 1.140625 -8.671875 L 4.65625 -8.671875 C 5.757812 -8.671875 6.617188 -8.410156 7.234375 -7.890625 C 7.847656 -7.378906 8.15625 -6.65625 8.15625 -5.71875 C 8.15625 -5.019531 8 -4.429688 7.6875 -3.953125 C 7.375 -3.472656 6.929688 -3.125 6.359375 -2.90625 L 8.296875 0 Z M 2.609375 -3.921875 L 4.65625 -3.921875 C 6.0625 -3.921875 6.765625 -4.503906 6.765625 -5.671875 C 6.765625 -6.796875 6.0625 -7.359375 4.65625 -7.359375 L 2.609375 -7.359375 Z M 2.609375 -3.921875 "/></g></g></g><g fill="#000000" fill-opacity="1"><g transform="translate(272.129288, 199.009617)"><g><path d="M 8.515625 -8.671875 L 8.515625 -3.59375 C 8.515625 -2.457031 8.175781 -1.5625 7.5 -0.90625 C 6.832031 -0.257812 5.910156 0.0625 4.734375 0.0625 C 3.566406 0.0625 2.644531 -0.257812 1.96875 -0.90625 C 1.300781 -1.5625 0.96875 -2.457031 0.96875 -3.59375 L 0.96875 -8.671875 L 2.421875 -8.671875 L 2.421875 -3.59375 C 2.421875 -2.863281 2.628906 -2.289062 3.046875 -1.875 C 3.472656 -1.457031 4.046875 -1.25 4.765625 -1.25 C 5.472656 -1.25 6.03125 -1.453125 6.4375 -1.859375 C 6.84375 -2.273438 7.046875 -2.851562 7.046875 -3.59375 L 7.046875 -8.671875 Z M 8.515625 -8.671875 "/></g></g></g><g fill="#000000" fill-opacity="1"><g transform="translate(291.515784, 199.009617)"><g><path d="M 8.65625 0 L 7.21875 0 L 2.609375 -6.21875 L 2.609375 0 L 1.140625 0 L 1.140625 -8.671875 L 2.578125 -8.671875 L 7.21875 -2.4375 L 7.21875 -8.671875 L 8.65625 -8.671875 Z M 8.65625 0 "/></g></g></g></svg>